<svg width="679" height="382" viewBox="0 0 679 382" xmlns="http://www.w3.org/2000/svg" xmlns:xlink="http://www.w3.org/1999/xlink">
  <g id="viewport">
    <image x="0" y="0" width="679" height="382" href="svg/Image.png" preserveAspectRatio="xMidYMid slice" pointer-events="none" />

    <path class="unit" data-unit-id="U1" d="M234 215.5L241.5 139C235.333 136.167 223.5 130.2 217.5 129C211.5 127.8 205.719 132.164 204.5 134.5C198.5 146 189.5 172.7 187.5 173.5C185.5 174.3 185.167 183.667 186 188.5C193.333 196.667 214.4 215.3 220 218.5C225.6 221.7 230.667 218.167 234 215.5Z" stroke="black"/>
    <path class="unit" data-unit-id="U2" d="M286 198L235 214.5L242 139L267 132L286 198Z" stroke="black"/>
    <path class="unit" data-unit-id="U3" d="M315 188L284.5 197.5L266 131L293 121L315 188Z" stroke="black"/>
    <path class="unit" data-unit-id="U4" d="M346 181L314 188.5L294 122.5L324 114L346 181Z" stroke="black"/>
    <path class="unit" data-unit-id="U5" d="M411.5 115L351.5 133L343 105L401.5 86.5L411.5 115Z" stroke="black"/>
    <path class="unit" data-unit-id="U6" d="M411 116L333.5 139V140.5L346.5 181.5L372.5 178.5L397.5 171C405.667 163.667 420.2 144.5 415 128.5L411 116Z" stroke="black"/>
  </g>
</svg>
